<svg version="1.0" preserveAspectRatio="xMidYMid meet" viewBox="38.25 116.99999719200001 295.5 169.49999593200002" zoomAndPan="magnify" xmlns:xlink="http://www.w3.org/1999/xlink" xmlns="http://www.w3.org/2000/svg" style="max-height: 500px" width="295.5" height="169.49999593200002"><defs><g/><clipPath id="e6729ee61b"><path clip-rule="nonzero" d="M 40.070312 156 L 135 156 L 135 250 L 40.070312 250 Z M 40.070312 156"/></clipPath></defs><g clip-path="url(#e6729ee61b)"><path fill-rule="evenodd" fill-opacity="1" d="M 81.019531 157.316406 C 77.074219 157.835938 75.550781 158.175781 72.484375 159.226562 C 60.945312 163.167969 50.933594 171.894531 45.492188 182.753906 C 43.320312 187.09375 41.414062 193.410156 40.886719 198.019531 C 39.792969 207.539062 41.917969 218.234375 46.484375 226.191406 C 52.984375 237.527344 63.371094 245.511719 75.761719 248.707031 C 77.402344 249.128906 79.558594 249.515625 80.550781 249.566406 L 82.359375 249.652344 L 94.644531 236.539062 L 106.925781 223.425781 L 95.109375 223.265625 C 81.925781 223.089844 81.28125 223.011719 78.082031 221.226562 C 73.304688 218.558594 69.832031 214.46875 67.988281 209.339844 C 67.347656 207.554688 67.277344 206.992188 67.257812 203.355469 C 67.242188 199.660156 67.296875 199.167969 67.964844 197.199219 C 69.019531 194.097656 70.425781 191.867188 72.855469 189.4375 C 78.550781 183.742188 86.375 182.003906 93.921875 184.757812 C 98.046875 186.265625 101.511719 188.96875 103.796875 192.460938 C 105.328125 194.796875 106.0625 196.648438 106.734375 199.875 C 107.207031 202.125 107.238281 203.804688 107.242188 225.097656 L 107.246094 247.914062 L 134.007812 247.914062 L 134.007812 223.628906 C 134.003906 203.414062 133.9375 198.890625 133.605469 196.664062 C 132.078125 186.480469 127.304688 177.363281 119.707031 170.105469 C 115.910156 166.484375 112.609375 164.117188 108.457031 162.054688 C 99.90625 157.796875 90.152344 156.113281 81.019531 157.316406" fill="#ffffff"/></g><g fill-opacity="1" fill="#ffffff"><g transform="translate(139.91497, 246.073234)"><g><path d="M 11.375 0 L 11.375 -125.921875 L 33.75 -125.921875 L 33.75 0 Z M 11.375 0"/></g></g></g><g fill-opacity="1" fill="#ffffff"><g transform="translate(185.208882, 246.073234)"><g><path d="M 11.375 0 L 11.375 -125.921875 L 33.75 -125.921875 L 33.75 0 Z M 11.375 0"/></g></g></g><g fill-opacity="1" fill="#ffffff"><g transform="translate(230.502795, 246.073234)"><g><path d="M 22.21875 38.46875 L 42.328125 -5.765625 L 37.078125 -5.765625 L 3.328125 -86.75 L 27.625 -86.75 L 51.9375 -25.703125 L 77.296875 -86.75 L 101.09375 -86.75 L 46 38.46875 Z M 22.21875 38.46875"/></g></g></g></svg>