<svg version="1.0" preserveAspectRatio="xMidYMid meet" viewBox="0 74.30399716200002 293.0473321858864 168.76799355400001" zoomAndPan="magnify" xmlns:xlink="http://www.w3.org/1999/xlink" xmlns="http://www.w3.org/2000/svg" style="max-height: 500px" width="293.0473321858864" height="168.76799355400001"><defs><g/><clipPath id="11a3bd3747"><path clip-rule="nonzero" d="M 0 0.214844 L 334 0.214844 L 334 287.785156 L 0 287.785156 Z M 0 0.214844"/></clipPath></defs><g clip-path="url(#11a3bd3747)"><path fill-rule="nonzero" fill-opacity="1" d="M 0 0.214844 L 334 0.214844 L 334 287.785156 L 0 287.785156 Z M 0 0.214844" fill="#ffffff"/></g><path fill-rule="evenodd" fill-opacity="1" d="M 40.886719 113.605469 C 36.949219 114.125 35.425781 114.464844 32.367188 115.511719 C 20.84375 119.449219 10.847656 128.164062 5.414062 139.007812 C 3.246094 143.339844 1.339844 149.644531 0.8125 154.25 C -0.277344 163.753906 1.847656 174.433594 6.402344 182.378906 C 12.894531 193.695312 23.265625 201.671875 35.636719 204.859375 C 37.277344 205.28125 39.425781 205.667969 40.421875 205.71875 L 42.226562 205.804688 L 66.757812 179.617188 L 54.957031 179.460938 C 41.792969 179.28125 41.152344 179.203125 37.953125 177.417969 C 33.183594 174.757812 29.71875 170.675781 27.875 165.554688 C 27.234375 163.769531 27.167969 163.207031 27.148438 159.574219 C 27.128906 155.886719 27.183594 155.398438 27.855469 153.429688 C 28.90625 150.335938 30.308594 148.105469 32.738281 145.679688 C 38.421875 139.996094 46.238281 138.257812 53.769531 141.007812 C 57.886719 142.511719 61.351562 145.210938 63.632812 148.699219 C 65.160156 151.03125 65.890625 152.882812 66.566406 156.101562 C 67.035156 158.347656 67.070312 160.023438 67.070312 181.289062 L 67.074219 204.070312 L 93.796875 204.070312 L 93.796875 179.816406 C 93.796875 159.636719 93.726562 155.117188 93.394531 152.894531 C 91.867188 142.726562 87.105469 133.625 79.519531 126.378906 C 75.726562 122.757812 72.429688 120.398438 68.285156 118.335938 C 59.746094 114.085938 50.003906 112.40625 40.886719 113.605469" fill="#1ad1ff"/><g fill-opacity="1" fill="#1ad1ff"><g transform="translate(99.695398, 202.230703)"><g><path d="M 11.34375 0 L 11.34375 -125.734375 L 33.703125 -125.734375 L 33.703125 0 Z M 11.34375 0"/></g></g></g><g fill-opacity="1" fill="#1ad1ff"><g transform="translate(144.921708, 202.230703)"><g><path d="M 11.34375 0 L 11.34375 -125.734375 L 33.703125 -125.734375 L 33.703125 0 Z M 11.34375 0"/></g></g></g><g fill-opacity="1" fill="#1ad1ff"><g transform="translate(190.148019, 202.230703)"><g><path d="M 22.171875 38.421875 L 42.265625 -5.765625 L 37.015625 -5.765625 L 3.3125 -86.609375 L 27.59375 -86.609375 L 51.859375 -25.671875 L 77.1875 -86.609375 L 100.9375 -86.609375 L 45.921875 38.421875 Z M 22.171875 38.421875"/></g></g></g></svg>